<?xml version="1.0" standalone="no"?>
<!DOCTYPE svg PUBLIC "-//W3C//DTD SVG 20010904//EN"
 "http://www.w3.org/TR/2001/REC-SVG-20010904/DTD/svg10.dtd">
<svg version="1.0" xmlns="http://www.w3.org/2000/svg"
 width="551.000000pt" height="284.000000pt" viewBox="0 0 551.000000 284.000000"
 preserveAspectRatio="xMidYMid meet">
<metadata>
Created by potrace 1.15, written by Peter Selinger 2001-2017
</metadata>
<g transform="translate(0.000000,284.000000) scale(0.100000,-0.100000)"
fill="#000000" stroke="none">
<path d="M5 2818 c13 -59 76 -325 100 -423 66 -269 136 -563 171 -712 20 -89
40 -166 43 -171 3 -5 107 -72 231 -149 124 -77 509 -317 855 -533 347 -216
788 -491 981 -611 193 -121 358 -219 367 -219 9 0 70 33 134 74 65 40 312 194
548 341 844 526 1254 781 1500 935 l250 156 56 229 c31 127 85 347 119 490 67
281 138 569 146 598 4 12 0 17 -14 17 -21 0 -34 -43 -111 -370 -35 -145 -70
-293 -188 -784 l-29 -119 -202 348 c-112 191 -202 353 -200 361 2 7 111 129
243 270 132 142 246 266 254 276 12 18 11 19 -12 16 -18 -2 -90 -73 -252 -248
-125 -135 -235 -253 -245 -263 -16 -18 -20 -13 -94 113 -42 72 -74 134 -72
139 3 5 101 64 218 132 191 112 209 124 180 127 -34 3 -46 -3 -326 -170 -54
-32 -99 -58 -101 -56 -1 2 -30 52 -65 111 -60 103 -77 123 -99 115 -5 -1 22
-57 60 -122 57 -97 68 -121 57 -131 -11 -11 -200 -122 -631 -373 -71 -41 -130
-72 -133 -70 -2 3 16 47 40 99 24 52 74 162 111 244 37 83 87 192 111 244 24
51 44 98 44 102 0 5 -8 9 -17 9 -14 0 -58 -89 -186 -373 l-169 -372 -66 -39
c-86 -50 -231 -135 -571 -335 -151 -88 -280 -161 -288 -161 -11 0 -169 91
-786 454 l-138 81 -44 95 c-24 52 -98 217 -165 365 -67 149 -126 274 -130 278
-4 5 -15 7 -23 5 -11 -2 10 -58 90 -233 57 -126 119 -264 137 -305 19 -42 43
-95 55 -118 12 -23 17 -42 12 -42 -6 0 -59 29 -118 64 -163 96 -488 286 -575
337 -43 24 -78 48 -78 54 0 5 29 60 65 122 36 62 65 115 65 118 0 3 -8 5 -18
5 -12 0 -39 -37 -85 -115 l-68 -116 -32 20 c-18 11 -106 63 -196 116 -128 74
-172 95 -195 93 -27 -3 -8 -16 154 -112 102 -60 200 -118 218 -128 l33 -20
-19 -32 c-10 -17 -45 -77 -77 -134 l-60 -103 -65 68 c-36 38 -92 98 -125 133
-260 280 -309 330 -327 330 -11 0 -18 -4 -16 -9 2 -5 117 -132 256 -281 140
-149 252 -277 249 -283 -7 -18 -388 -671 -397 -681 -10 -10 -16 11 -92 329
-33 138 -84 351 -114 475 -30 124 -66 276 -81 338 -22 92 -30 112 -45 112 -14
0 -17 -5 -13 -22z m1081 -331 c60 -35 204 -119 319 -187 116 -68 243 -142 282
-164 40 -23 71 -45 70 -50 -2 -4 -86 -40 -187 -78 -102 -38 -225 -85 -275
-104 -49 -19 -95 -34 -102 -34 -6 0 -98 92 -203 205 l-191 204 78 135 c43 75
83 135 89 136 6 0 60 -29 120 -63z m3538 -67 c42 -71 76 -133 76 -138 0 -8
-159 -183 -337 -372 l-42 -45 -88 32 c-212 76 -477 181 -480 189 -2 5 70 52
159 104 90 52 264 154 388 227 124 73 230 133 236 133 7 0 46 -58 88 -130z
m-3661 -369 c98 -105 177 -194 177 -198 0 -5 -46 -26 -102 -47 -242 -91 -499
-189 -571 -218 -43 -17 -79 -29 -81 -27 -5 5 387 679 395 679 3 0 85 -85 182
-189z m3787 152 c128 -215 370 -636 367 -639 -2 -2 -73 22 -158 55 -85 32
-233 89 -329 125 -252 96 -265 102 -262 112 3 9 351 384 357 384 1 0 13 -17
25 -37z m-620 -306 c79 -30 146 -59 148 -65 4 -14 -688 -757 -703 -756 -6 1
-66 33 -133 73 l-121 71 56 122 c31 68 90 200 133 293 42 94 102 227 134 296
l57 126 142 -53 c78 -29 207 -77 287 -107z m-2260 16 c34 -76 84 -185 110
-243 27 -58 73 -159 103 -225 75 -164 100 -225 96 -229 -2 -1 -60 -36 -129
-76 l-124 -73 -50 54 c-27 30 -185 200 -350 377 -166 178 -302 327 -304 332
-2 4 59 31 135 59 76 28 201 76 278 105 77 30 147 55 156 55 11 1 35 -41 79
-136z m97 58 c54 -32 208 -122 343 -201 375 -219 399 -233 394 -241 -4 -6
-204 -126 -401 -240 l-83 -48 -15 22 c-8 12 -15 25 -15 28 0 7 -218 491 -296
658 -35 75 -37 81 -29 81 2 0 48 -26 102 -59z m1567 -192 c-58 -129 -125 -277
-149 -329 -23 -52 -54 -121 -69 -153 l-26 -57 -48 27 c-232 133 -441 259 -439
266 1 5 124 79 272 166 149 87 335 197 415 244 80 46 146 82 148 78 1 -5 -45
-113 -104 -242z m-2060 -279 c325 -351 438 -470 449 -470 6 0 69 34 140 76 77
45 133 72 138 67 5 -5 36 -68 68 -139 32 -71 92 -203 133 -294 42 -91 108
-237 147 -325 40 -88 91 -199 113 -248 23 -48 39 -89 37 -92 -3 -2 -108 60
-235 138 -126 79 -488 305 -804 502 -1177 733 -1280 798 -1278 800 2 2 100 40
218 85 424 161 545 207 560 213 17 6 40 -16 314 -313z m3326 141 c118 -45 239
-91 268 -102 28 -11 52 -22 52 -25 0 -7 4 -4 -1185 -744 -126 -79 -401 -250
-610 -380 -474 -296 -517 -322 -520 -318 -1 2 31 77 72 168 41 91 129 284 195
430 191 422 232 510 238 510 3 0 63 -34 133 -75 71 -41 133 -75 140 -75 7 0
59 51 116 113 58 61 223 239 367 394 l263 281 128 -48 c70 -26 225 -84 343
-129z m-2071 -838 l0 -688 -40 85 c-23 47 -58 123 -79 170 -41 93 -145 323
-235 520 -105 231 -136 303 -132 313 3 9 465 285 480 286 4 1 7 -308 6 -686z
m243 579 c101 -60 209 -123 241 -141 46 -26 57 -37 52 -52 -4 -10 -47 -107
-97 -216 -49 -109 -107 -236 -128 -283 -113 -255 -252 -556 -261 -565 -5 -5
-9 251 -9 678 0 414 4 687 9 687 5 0 92 -49 193 -108z"/>
</g>
</svg>
