<?xml version="1.0" standalone="no"?>
<!DOCTYPE svg PUBLIC "-//W3C//DTD SVG 20010904//EN"
 "http://www.w3.org/TR/2001/REC-SVG-20010904/DTD/svg10.dtd">
<svg version="1.0" xmlns="http://www.w3.org/2000/svg"
 width="512.000000pt" height="512.000000pt" viewBox="0 0 512.000000 512.000000"
 preserveAspectRatio="xMidYMid meet">
<metadata>
Created by potrace 1.11, written by Peter Selinger 2001-2013
</metadata>
<g transform="translate(0.000000,512.000000) scale(0.100000,-0.100000)"
fill="#000000" stroke="none">
<path d="M2235 5104 c-292 -39 -533 -113 -800 -243 -518 -254 -924 -660 -1175
-1175 -184 -378 -260 -707 -260 -1124 0 -427 77 -761 260 -1137 372 -761 1102
-1288 1951 -1410 174 -25 637 -17 799 14 539 103 987 337 1365 716 379 378
613 826 716 1365 31 162 39 625 14 799 -85 595 -353 1110 -795 1527 -395 371
-910 608 -1465 673 -124 15 -488 12 -610 -5z m1635 -1200 c68 -31 133 -93 168
-159 l27 -50 3 -842 2 -841 -21 -58 c-30 -80 -113 -163 -192 -192 l-58 -22
-1239 0 -1239 0 -58 22 c-79 29 -162 112 -192 192 l-21 58 2 841 3 842 27 51
c15 28 51 73 81 100 98 90 -21 82 1397 83 l1255 1 55 -26z m750 -2436 c0 -104
-3 -128 -20 -155 -24 -41 -79 -77 -154 -103 -59 -20 -76 -20 -1884 -20 -2004
0 -1875 -4 -1975 60 -77 48 -87 74 -87 218 l0 122 2060 0 2060 0 0 -122z"/>
<path d="M1354 3658 c-12 -5 -27 -21 -33 -34 -8 -18 -11 -250 -11 -795 l0
-771 29 -29 30 -29 1196 2 1197 3 24 28 24 28 0 769 c0 542 -3 776 -11 793 -6
14 -22 30 -36 36 -33 15 -2378 14 -2409 -1z"/>
<path d="M2363 1453 c-16 -6 -17 -45 -1 -61 17 -17 379 -17 396 0 17 17 15 55
-4 62 -19 7 -373 7 -391 -1z"/>
</g>
</svg>
